<svg xmlns="http://www.w3.org/2000/svg" xmlns:xlink="http://www.w3.org/1999/xlink" viewBox="0 0 530 122"><path d="M176.06 76.06v6.7h-23.15V48.11h7.8v27.95h15.35z"/><use xlink:href="#B"/><path d="M224.66 63.06l-2.35-.53c-.9-.18-1.87-.27-2.9-.27-.47 0-1.02.04-1.68.12-.65.08-1.14.17-1.47.27v20.1h-7.45v-24.9c1.33-.47 2.91-.91 4.73-1.33s3.84-.62 6.07-.62c.4 0 .88.03 1.45.08l1.7.2 1.7.3c.57.12 1.05.26 1.45.42l-1.25 6.16z"/><use xlink:href="#B" x="48.25"/><path d="M263.6 82.76c-1.71-3.33-3.44-7.23-5.19-11.7-1.76-4.47-3.42-9.33-4.99-14.6h7.9c.33 1.3.73 2.71 1.18 4.22l1.41 4.6 1.46 4.53a83.31 83.31 0 0 0 1.43 4l1.4-4 1.48-4.53 1.41-4.6c.45-1.52.85-2.92 1.18-4.22h7.7c-1.57 5.27-3.23 10.13-4.99 14.6-1.75 4.47-3.48 8.37-5.19 11.7h-6.19zm18.36-12.95c0-2.33.36-4.38 1.08-6.12.72-1.75 1.66-3.21 2.82-4.38a11.78 11.78 0 0 1 4.02-2.65 12.64 12.64 0 0 1 4.68-.9c3.73 0 6.68 1.14 8.85 3.42s3.25 5.64 3.25 10.08l-.05 1.42-.1 1.38h-16.9c.17 1.53.88 2.75 2.15 3.65s2.97 1.35 5.1 1.35c1.37 0 2.71-.12 4.02-.38 1.32-.25 2.39-.56 3.23-.92l1 6.05c-.4.2-.93.4-1.6.6a21.38 21.38 0 0 1-2.22.53l-2.62.38s-1.87.15-2.8.15c-2.37 0-4.42-.35-6.17-1.05s-3.2-1.66-4.35-2.88-2-2.66-2.55-4.32c-.56-1.68-.84-3.48-.84-5.41zm17.5-2.85a7.26 7.26 0 0 0-.33-1.85 4.65 4.65 0 0 0-.85-1.6c-.38-.47-.87-.85-1.45-1.15s-1.31-.45-2.17-.45c-.83 0-1.55.14-2.15.43-.6.28-1.1.66-1.5 1.12a4.98 4.98 0 0 0-.92 1.62c-.22.62-.38 1.24-.48 1.88h9.85zm23.46 16.3c-2.17-.03-3.92-.27-5.28-.7-1.35-.43-2.42-1.04-3.2-1.82s-1.32-1.73-1.6-2.85-.42-2.38-.42-3.77V45.16l7.45-1.2v28.65c0 .67.05 1.27.15 1.8s.29.98.58 1.35c.28.37.69.67 1.23.9.53.23 1.25.38 2.15.45l-1.06 6.15zm19.43-.64v-26.6l3.26-.56v9.31c.61-.23 1.25-.41 1.94-.54s1.37-.19 2.05-.19c1.45 0 2.65.2 3.6.61.96.41 1.72.98 2.29 1.71s.97 1.62 1.21 2.64c.23 1.03.35 2.16.35 3.39v10.22h-3.25V73.1c0-1.12-.08-2.08-.23-2.87s-.4-1.43-.75-1.92-.82-.85-1.4-1.07-1.31-.33-2.17-.33a8.04 8.04 0 0 0-1.08.07l-1.07.16-.91.19-.58.17v15.12h-3.26zm21.6-21.49c-.58 0-1.08-.19-1.49-.58s-.61-.9-.61-1.56.2-1.17.61-1.56.9-.58 1.49-.58c.58 0 1.08.19 1.49.58.41.38.61.9.61 1.56s-.2 1.17-.61 1.56-.91.58-1.49.58zm1.64 21.49h-3.26v-18.2h3.26v18.2zm9.84-2.35c1.33 0 2.32-.17 2.96-.52s.96-.91.96-1.68c0-.79-.31-1.42-.95-1.89-.63-.47-1.67-.99-3.11-1.58l-2.01-.86c-.64-.29-1.2-.63-1.66-1.03a4.59 4.59 0 0 1-1.12-1.43c-.28-.56-.42-1.25-.42-2.07 0-1.61.59-2.89 1.78-3.83 1.19-.95 2.81-1.42 4.87-1.42.51 0 1.03.03 1.54.09l1.44.21 1.17.26.79.25-.6 2.8c-.35-.19-.9-.38-1.65-.58s-1.65-.3-2.69-.3c-.91 0-1.7.18-2.38.54s-1.02.93-1.02 1.7a2.32 2.32 0 0 0 .23 1.05 2.33 2.33 0 0 0 .7.82c.32.25.71.47 1.17.68l1.68.67 2.31.96c.68.32 1.25.68 1.73 1.1s.85.93 1.1 1.52.39 1.33.39 2.19c0 1.68-.62 2.95-1.87 3.82-1.25.86-3.03 1.29-5.34 1.29-1.61 0-2.87-.13-3.78-.4l-1.85-.61.6-2.8 1.78.63c.81.28 1.89.42 3.25.42zm14.42-15.85h6.9v2.73h-6.9v8.4c0 .91.07 1.66.21 2.26.14.59.35 1.06.63 1.4a2.26 2.26 0 0 0 1.05.72c.42.14.91.21 1.47.21.98 0 1.77-.11 2.36-.33l1.24-.47.63 2.69c-.33.16-.9.37-1.71.61-.82.25-1.75.37-2.8.37-1.24 0-2.26-.16-3.06-.47s-1.45-.79-1.94-1.42-.83-1.41-1.03-2.33-.3-1.99-.3-3.2V59.34l3.26-.56v5.64zm26.6 9.1c0 1.45-.21 2.75-.63 3.92s-1.01 2.17-1.77 3.01a7.71 7.71 0 0 1-2.71 1.94c-1.05.46-2.19.68-3.43.68s-2.38-.23-3.43-.68a7.71 7.71 0 0 1-2.71-1.94c-.76-.84-1.35-1.84-1.77-3.01s-.63-2.47-.63-3.92c0-1.42.21-2.72.63-3.9s1.01-2.19 1.77-3.03a7.71 7.71 0 0 1 2.71-1.94c1.05-.45 2.19-.68 3.43-.68s2.38.23 3.43.68c1.05.46 1.95 1.1 2.71 1.94s1.35 1.85 1.77 3.03c.42 1.17.63 2.48.63 3.9zm-3.4 0c0-2.05-.46-3.68-1.38-4.88s-2.18-1.8-3.76-1.8c-1.59 0-2.84.6-3.76 1.8s-1.38 2.83-1.38 4.88.46 3.68 1.38 4.88 2.18 1.8 3.76 1.8c1.59 0 2.84-.6 3.76-1.8s1.38-2.83 1.38-4.88zm14.7-9.49c.28 0 .6.02.96.05l1.07.14.96.17.65.16-.56 2.83c-.26-.09-.68-.2-1.28-.33-.59-.13-1.36-.19-2.29-.19-.61 0-1.21.06-1.8.19l-1.17.26V82.6h-3.25V65.19c.77-.28 1.73-.54 2.87-.79 1.13-.24 2.42-.37 3.84-.37zm5.39 21.98a5.56 5.56 0 0 0 1 .33c.41.1.81.16 1.21.16 1.28 0 2.29-.29 3.01-.86s1.38-1.5 1.96-2.78c-1.47-2.8-2.84-5.77-4.11-8.91s-2.33-6.32-3.17-9.54h3.5l.93 3.39 1.21 3.75 1.43 3.85 1.61 3.71 2.31-7.28a211.45 211.45 0 0 0 1.86-7.42h3.36c-.84 3.43-1.77 6.73-2.8 9.89s-2.13 6.12-3.33 8.87c-.47 1.05-.95 1.95-1.45 2.71s-1.06 1.38-1.66 1.87c-.61.49-1.29.85-2.05 1.08s-1.62.35-2.57.35a7.65 7.65 0 0 1-.81-.05c-.28-.04-.55-.08-.82-.14s-.51-.12-.73-.19a5 5 0 0 1-.47-.17l.58-2.62z"/><path d="M106.75 8.83a6.82 6.82 0 0 1 6.81 6.81c0 3.75-3.06 6.81-6.81 6.81a6.82 6.82 0 0 1-6.81-6.81 6.82 6.82 0 0 1 6.81-6.81m0-8.83A15.65 15.65 0 0 0 91.1 15.64a15.64 15.64 0 1 0 31.28 0C122.38 7 115.39 0 106.75 0h0z" fill="#29abe2"/><path d="M113.41 41.89a5.52 5.52 0 0 0-5.52 5.52v10.07h-25.6a5.52 5.52 0 0 0-5.09 3.38l-5.96 14.16-15.72-39.84c-.82-2.06-2.79-3.44-5.01-3.49-2.22-.04-4.25 1.23-5.16 3.26L35.22 57.52H11.33V36.57c0-12.23 9.95-22.17 22.17-22.17h42.14a5.52 5.52 0 1 0 0-11.04H33.5C15.19 3.36.29 18.26.29 36.57v52.22C.29 107.1 15.19 122 33.5 122h52.22c18.31 0 33.21-14.9 33.21-33.21V47.41a5.52 5.52 0 0 0-5.52-5.52zm-27.69 69.07H33.5c-12.23 0-22.17-9.95-22.17-22.17V68.56H38.8c2.17 0 4.15-1.28 5.04-3.26l6.23-13.88 15.89 40.25a5.5 5.5 0 0 0 5.07 3.49h.06a5.52 5.52 0 0 0 5.09-3.38l9.79-23.26h21.93v20.27c-.01 12.22-9.96 22.17-22.18 22.17z" fill="#0071bc"/><defs ><path id="B" d="M190.61 55.76c2.2 0 4.03.25 5.5.75s2.64 1.22 3.52 2.15 1.51 2.07 1.88 3.4.55 2.82.55 4.45v15.5l-4.45.83c-1.9.32-4.2.47-6.9.47-1.7 0-3.24-.15-4.62-.45s-2.57-.79-3.57-1.48c-1-.68-1.77-1.58-2.3-2.67s-.8-2.45-.8-4.05c0-1.53.31-2.83.92-3.9.62-1.07 1.44-1.92 2.48-2.55 1.03-.63 2.22-1.09 3.55-1.38a20.14 20.14 0 0 1 4.15-.43l2.57.12c.75.08 1.36.19 1.83.33v-.7c0-1.27-.38-2.28-1.15-3.05s-2.1-1.15-4-1.15c-1.27 0-2.52.09-3.75.28-1.23.18-2.3.44-3.2.77l-.95-6 1.62-.42 2.12-.4 2.42-.3 2.58-.12zm.6 21.8l2.1-.05 1.6-.15v-5.65c-.3-.07-.75-.13-1.35-.2a14.25 14.25 0 0 0-1.65-.1 15.49 15.49 0 0 0-1.98.12c-.62.08-1.16.24-1.62.48a2.76 2.76 0 0 0-1.1.95c-.27.4-.4.9-.4 1.5 0 1.17.39 1.97 1.18 2.42.78.45 1.86.68 3.22.68z"/></defs></svg>
