<svg xmlns="http://www.w3.org/2000/svg" viewBox="0 0 122 122"><path d="M106.41 8.83a6.82 6.82 0 0 1 6.81 6.81c0 3.75-3.06 6.81-6.81 6.81s-6.81-3.06-6.81-6.81a6.82 6.82 0 0 1 6.81-6.81m0-8.83a15.64 15.64 0 1 0 0 31.28 15.64 15.64 0 1 0 0-31.28h0z" fill="#29abe2"/><path d="M113.07 41.89a5.52 5.52 0 0 0-5.52 5.52v10.07h-25.6a5.52 5.52 0 0 0-5.09 3.38L70.9 75.02 55.17 35.18c-.82-2.06-2.79-3.44-5.01-3.49-2.22-.04-4.25 1.23-5.16 3.26L34.88 57.52H10.99V36.57c0-12.23 9.95-22.17 22.17-22.17H75.3a5.52 5.52 0 1 0 0-11.04H33.16C14.85 3.36-.05 18.26-.05 36.57v52.22c0 18.31 14.9 33.21 33.21 33.21h52.22c18.31 0 33.21-14.9 33.21-33.21V47.41a5.52 5.52 0 0 0-5.52-5.52zm-27.69 69.07H33.16c-12.23 0-22.17-9.95-22.17-22.17V68.56h27.47c2.17 0 4.15-1.28 5.04-3.26l6.23-13.88 15.89 40.25a5.5 5.5 0 0 0 5.07 3.49h.06a5.52 5.52 0 0 0 5.09-3.38l9.79-23.26h21.93v20.27c-.01 12.22-9.96 22.17-22.18 22.17z" fill="#0071bc"/></svg>
